<?xml version="1.0" standalone="no"?>
<!DOCTYPE svg PUBLIC "-//W3C//DTD SVG 20010904//EN"
 "http://www.w3.org/TR/2001/REC-SVG-20010904/DTD/svg10.dtd">
<svg version="1.0" xmlns="http://www.w3.org/2000/svg"
 width="300.000000pt" height="181.000000pt" viewBox="0 0 300.000000 181.000000"
 preserveAspectRatio="xMidYMid meet">
<metadata>
Created by potrace 1.10, written by Peter Selinger 2001-2011
</metadata>
<g transform="translate(0.000000,181.000000) scale(0.100000,-0.100000)"
fill="#000000" stroke="none">
<path d="M1324 1710 c-139 -29 -255 -89 -339 -175 -68 -70 -81 -89 -119 -170
-46 -97 -60 -163 -60 -280 0 -110 17 -180 66 -279 29 -59 133 -196 148 -196 5
0 15 -6 22 -13 52 -49 189 -107 288 -123 96 -15 220 -7 290 18 8 3 33 11 55
18 22 7 59 26 83 41 24 16 47 29 51 29 4 0 39 33 78 73 166 171 224 418 148
637 -70 205 -222 349 -430 406 -69 19 -221 27 -281 14z m299 -39 c264 -93 427
-317 427 -586 0 -80 -31 -200 -72 -278 -38 -73 -162 -202 -230 -239 -265 -146
-572 -97 -771 122 -165 183 -202 445 -94 669 82 168 254 297 447 335 58 11
236 -3 293 -23z"/>
<path d="M1325 1645 c-88 -18 -199 -72 -256 -125 -41 -38 -38 -36 51 20 52 33
102 60 110 60 9 0 20 4 26 9 5 5 36 14 68 20 165 30 305 -2 451 -103 56 -39
72 -40 29 -2 -40 35 -148 91 -212 110 -79 23 -186 27 -267 11z"/>
<path d="M1060 1473 c-41 -8 -78 -41 -95 -87 -23 -60 -8 -113 44 -158 28 -24
37 -38 31 -48 -20 -36 -29 -131 -19 -187 15 -79 39 -122 99 -176 202 -182 612
-121 710 105 27 63 31 170 8 234 l-15 41 38 32 c48 39 63 87 47 148 -25 100
-160 133 -238 58 l-27 -26 -47 21 c-103 44 -227 43 -322 -2 l-45 -21 -28 27
c-15 14 -43 31 -62 36 -35 10 -37 10 -79 3z m100 -28 c37 -19 54 -49 37 -63
-9 -8 -19 -4 -36 14 -39 41 -111 32 -136 -17 -24 -45 -19 -78 17 -110 22 -21
28 -33 21 -40 -14 -14 -48 4 -70 37 -22 34 -21 103 2 137 35 54 107 72 165 42z
m676 -4 c30 -18 64 -74 64 -105 0 -55 -67 -133 -92 -108 -8 8 -3 19 20 41 41
37 43 86 7 125 -31 34 -94 37 -124 5 -12 -13 -26 -19 -36 -15 -40 15 39 75
100 76 17 0 44 -9 61 -19z m-260 -22 c104 -39 193 -130 237 -243 29 -72 28
-185 0 -248 l-22 -47 -46 20 c-56 25 -141 35 -175 21 -21 -9 -13 -11 45 -11
65 -1 165 -26 165 -42 0 -13 -71 -69 -118 -93 -62 -31 -136 -46 -227 -46 -180
0 -312 66 -370 184 -65 133 -28 293 97 419 106 107 269 140 414 86z m-446 -44
c10 -12 10 -18 -1 -32 -49 -61 -54 -64 -75 -35 -19 24 -17 39 6 62 24 24 53
26 70 5z m671 2 c25 -19 32 -53 14 -71 -22 -21 -21 -21 -56 16 -33 37 -37 55
-11 61 29 8 36 7 53 -6z"/>
<path d="M1302 1387 c-15 -17 1 -42 23 -33 18 6 17 37 -1 43 -6 2 -16 -2 -22
-10z"/>
<path d="M1541 1391 c-17 -11 -7 -41 13 -41 22 0 30 20 15 36 -9 8 -19 10 -28
5z"/>
<path d="M1617 1373 c-4 -3 -7 -12 -7 -20 0 -15 26 -18 34 -4 7 11 -18 33 -27
24z"/>
<path d="M1253 1314 c-8 -21 13 -42 28 -27 13 13 5 43 -11 43 -6 0 -13 -7 -17
-16z"/>
<path d="M1583 1314 c-3 -8 -1 -20 6 -27 14 -14 47 15 37 32 -10 16 -36 13
-43 -5z"/>
<path d="M1173 1294 c-3 -8 -1 -20 5 -26 15 -15 43 8 35 28 -7 19 -32 18 -40
-2z"/>
<path d="M1657 1296 c-7 -17 18 -40 33 -31 5 3 10 15 10 26 0 23 -35 27 -43 5z"/>
<path d="M1204 1209 c-10 -17 13 -36 27 -22 12 12 4 33 -11 33 -5 0 -12 -5
-16 -11z"/>
<path d="M1634 1209 c-10 -17 13 -36 27 -22 12 12 4 33 -11 33 -5 0 -12 -5
-16 -11z"/>
<path d="M1102 1201 c-8 -4 -12 -19 -10 -32 2 -19 9 -24 33 -24 33 0 45 25 25
50 -14 17 -29 19 -48 6z"/>
<path d="M1720 1195 c-6 -8 -9 -23 -5 -35 10 -31 59 -24 63 9 6 37 -34 55 -58
26z"/>
<path d="M1242 1174 c-16 -11 -22 -24 -21 -52 l2 -37 6 34 c9 48 38 65 76 45
25 -12 27 -13 15 -1 -24 24 -54 28 -78 11z"/>
<path d="M1574 1179 c-68 -25 -72 -139 -6 -139 25 -1 26 -1 7 -12 -11 -6 -23
-16 -27 -22 -18 -27 -4 -24 43 9 31 21 74 39 110 47 32 6 55 16 51 20 -4 4
-32 1 -62 -7 -123 -35 -160 -29 -160 24 l1 26 15 -27 c19 -37 60 -38 76 -3 8
19 8 28 -2 40 -15 18 -51 20 -69 3 -11 -11 -13 -10 -9 2 6 20 45 39 68 33 10
-3 22 -14 28 -26 8 -16 11 -18 11 -6 2 30 -41 51 -75 38z"/>
<path d="M1250 1135 c-20 -24 3 -65 35 -65 20 0 29 8 40 33 l14 32 1 -31 c0
-59 -34 -65 -160 -29 -31 8 -58 11 -63 6 -5 -5 12 -12 40 -16 42 -6 120 -38
133 -54 3 -3 13 -12 23 -20 25 -20 21 4 -5 29 -21 20 -21 20 -2 20 12 0 26 11
33 24 15 27 11 71 -6 71 -6 0 -15 3 -19 8 -13 12 -51 8 -64 -8z"/>
<path d="M1388 1073 c-15 -10 -30 -24 -33 -32 -8 -20 24 -51 52 -51 19 0 23
-5 23 -28 0 -49 -48 -71 -76 -34 -13 16 -13 16 -14 -1 0 -25 27 -87 39 -87 5
0 11 12 13 26 6 51 88 50 88 -1 0 -14 5 -25 11 -25 12 0 39 61 39 87 -1 17 -1
17 -11 1 -12 -21 -49 -24 -67 -6 -7 7 -12 25 -12 40 0 23 4 28 23 28 29 0 60
32 51 53 -8 22 -49 47 -76 47 -13 0 -35 -8 -50 -17z m92 -13 c0 -5 -5 -12 -11
-16 -14 -8 -33 11 -25 25 7 11 36 4 36 -9z"/>
<path d="M1064 1045 c-8 -21 2 -45 19 -45 8 0 20 7 27 15 10 12 10 18 0 30 -7
8 -19 15 -27 15 -7 0 -16 -7 -19 -15z"/>
<path d="M1760 1045 c-11 -13 -11 -19 3 -32 21 -21 49 -9 45 19 -4 28 -30 35
-48 13z"/>
<path d="M1115 991 c-23 -7 -13 -9 46 -10 44 0 92 -8 114 -17 20 -8 42 -13 48
-11 6 2 -9 11 -34 21 -51 21 -131 28 -174 17z"/>
<path d="M1615 986 c-47 -15 -86 -35 -67 -36 7 0 29 7 49 15 20 8 69 15 112
16 53 1 69 3 51 9 -37 12 -100 10 -145 -4z"/>
<path d="M1158 914 c-26 -8 -50 -19 -53 -24 -8 -13 -8 -13 40 5 22 8 74 15
115 16 53 1 68 3 50 9 -39 12 -100 10 -152 -6z"/>
<path d="M1600 884 c0 -23 -47 -83 -74 -94 -17 -7 -17 -9 -3 -9 9 -1 16 -6 15
-12 -2 -6 3 -14 10 -16 14 -6 16 13 2 22 -6 3 3 17 19 31 32 26 56 80 40 89
-5 4 -9 -2 -9 -11z"/>
<path d="M1257 869 c3 -11 20 -36 38 -55 18 -19 29 -37 24 -40 -14 -8 -11 -26
4 -21 6 2 11 10 10 16 -5 20 19 12 24 -9 6 -22 14 -25 29 -11 5 6 29 12 54 14
37 3 34 4 -14 4 -37 0 -61 4 -64 11 -2 7 -10 12 -17 12 -16 0 -61 52 -70 80
-8 27 -25 26 -18 -1z"/>
<path d="M1147 856 c-7 -18 1 -26 25 -26 13 0 18 6 16 17 -4 22 -34 29 -41 9z"/>
<path d="M1687 864 c-16 -16 -6 -35 16 -32 12 2 22 10 22 18 0 16 -26 25 -38
14z"/>
<path d="M1247 804 c-14 -14 -7 -35 11 -32 9 2 17 10 17 17 0 16 -18 25 -28
15z"/>
<path d="M1597 796 c-7 -16 1 -26 20 -26 7 0 13 9 13 20 0 23 -25 27 -33 6z"/>
<path d="M900 1278 c-31 -90 -38 -229 -15 -316 64 -245 264 -411 516 -429 264
-19 517 161 584 417 30 114 21 252 -22 353 -24 56 -25 40 -2 -34 28 -88 33
-226 12 -304 -53 -196 -205 -349 -400 -400 -74 -20 -201 -20 -277 0 -88 23
-173 72 -242 140 -65 64 -134 167 -134 201 0 11 -4 24 -8 29 -5 6 -14 36 -21
68 -16 75 -7 178 26 280 23 72 9 68 -17 -5z"/>
<path d="M1015 410 c-24 -27 -25 -83 0 -110 13 -14 30 -20 63 -20 43 0 44 -1
28 -19 -27 -30 -6 -114 31 -125 10 -3 52 -5 93 -4 41 0 134 0 205 0 109 0 158
1 206 7 12 2 40 103 34 119 -8 21 12 32 57 32 37 0 37 1 21 19 -15 19 -17 19
-29 3 -17 -23 -28 -9 -13 16 10 17 10 23 -1 36 -7 9 -10 20 -6 24 4 4 14 -2
22 -12 8 -11 14 -14 14 -8 0 7 10 17 23 22 21 8 20 9 -8 10 -58 3 -108 11
-127 21 -12 6 -30 7 -54 0 -23 -6 -45 -6 -61 0 -16 6 -38 6 -57 1 -33 -10
-246 -7 -356 3 -59 6 -68 4 -85 -15z m603 -56 c-3 -47 -4 -49 -33 -49 -28 0
-30 2 -30 40 0 34 3 40 23 43 12 2 22 10 22 20 0 11 3 13 11 5 5 -5 9 -32 7
-59z m-514 41 c4 -12 -2 -14 -27 -12 -28 2 -32 -1 -35 -26 -4 -32 20 -46 43
-27 20 17 32 5 15 -15 -27 -32 -82 -7 -82 38 0 15 5 34 12 42 16 19 66 19 74
0z m36 5 c0 -5 9 -10 19 -10 10 0 21 -6 24 -12 8 -22 2 -73 -8 -72 -5 1 -9 16
-7 33 3 23 -1 31 -12 31 -12 0 -16 -10 -16 -35 0 -19 -4 -35 -10 -35 -5 0 -10
25 -10 55 0 30 5 55 10 55 6 0 10 -4 10 -10z m244 -48 c-4 -31 -3 -34 6 -19 7
10 21 23 33 28 22 9 22 9 -1 5 -15 -3 -22 0 -19 7 2 7 15 12 28 12 20 0 25 -6
30 -35 6 -33 6 -32 8 13 0 26 6 47 11 47 6 0 10 -4 10 -9 0 -5 10 -11 23 -13
18 -2 23 -10 25 -45 2 -26 -1 -43 -7 -43 -6 0 -11 16 -11 35 0 24 -5 35 -15
35 -10 0 -15 -10 -15 -34 l0 -33 -64 0 -64 0 -4 41 c-6 53 0 70 17 56 9 -7 12
-25 9 -48z m-125 21 c9 -17 11 -17 24 1 18 24 51 17 55 -12 3 -18 -1 -22 -23
-22 -16 0 -24 -4 -20 -10 4 -6 16 -8 27 -4 15 4 19 2 16 -7 -8 -23 -45 -22
-58 0 -11 22 -60 30 -60 10 0 -7 9 -9 21 -6 13 3 19 1 16 -6 -2 -7 -15 -12
-28 -12 -19 0 -25 6 -27 28 -2 16 -1 35 2 43 8 20 43 18 55 -3z m431 -2 c15
-29 13 -31 -21 -31 -18 0 -28 -4 -24 -10 4 -6 16 -8 27 -4 15 4 19 2 16 -7 -3
-8 -16 -14 -29 -14 -19 0 -25 6 -27 28 -2 16 -1 35 2 43 8 20 44 17 56 -5z
m-280 -98 c0 -5 -4 -14 -8 -21 -7 -9 -13 -8 -27 8 -18 20 -18 20 8 20 15 0 27
-3 27 -7z m-273 -43 c8 -42 19 -46 27 -9 7 37 30 34 34 -4 4 -33 22 -26 22 8
0 25 15 41 24 26 9 -14 -25 -102 -38 -98 -6 2 -14 17 -17 33 -6 29 -9 27 -24
-22 -8 -25 -26 -11 -41 31 -16 48 -17 65 -4 65 6 0 13 -14 17 -30z m178 -22
l24 -53 0 53 c1 28 6 52 11 52 6 0 10 -20 10 -45 0 -41 2 -45 25 -45 14 0 25
-4 25 -10 0 -5 -22 -10 -50 -10 -38 0 -50 4 -50 15 0 21 -37 19 -49 -2 -16
-30 -22 -8 -8 28 8 19 17 42 20 52 10 27 16 21 42 -35z m125 7 c0 -41 2 -45
25 -45 14 0 25 -4 25 -10 0 -5 -16 -10 -35 -10 l-35 0 0 55 c0 30 5 55 10 55
6 0 10 -20 10 -45z m230 28 c0 -7 -8 -13 -18 -13 -14 0 -17 -7 -14 -40 3 -32
1 -40 -12 -40 -12 0 -16 10 -16 39 0 43 -10 51 -57 44 -41 -7 -43 -23 -3 -23
17 0 30 -4 30 -10 0 -5 -13 -10 -30 -10 -16 0 -30 -4 -30 -10 0 -5 14 -10 30
-10 17 0 30 -4 30 -10 0 -5 -18 -10 -40 -10 l-40 0 0 49 c0 49 1 50 33 53 75
7 137 3 137 -9z"/>
<path d="M1570 344 c0 -31 23 -28 28 4 2 15 -2 22 -12 22 -11 0 -16 -9 -16
-26z"/>
<path d="M1760 364 c-11 -12 -10 -18 6 -35 20 -19 20 -19 20 16 0 38 -7 43
-26 19z"/>
</g>
</svg>
