<svg xmlns="http://www.w3.org/2000/svg" width="379" height="229" viewBox="0 0 379 229" version="1.1"><path d="M 165 15.940 C 142.384 20.729, 122.439 36.085, 112.491 56.367 C 107.099 67.361, 105.103 74.638, 104.308 86.202 C 101.908 121.121, 124.079 153.150, 158.086 163.894 C 168.392 167.150, 179.516 168.241, 189.617 166.985 C 217.049 163.577, 238.827 148.386, 250.525 124.500 C 256.373 112.558, 258.309 104.137, 258.339 90.500 C 258.448 41.778, 213.300 5.714, 165 15.940 M 164.241 21.954 C 143.569 27.536, 127.226 40.430, 118.145 58.322 C 112.068 70.297, 110.484 77.245, 110.583 91.500 C 110.651 101.515, 111.084 104.768, 113.200 111.167 C 121.083 135.011, 140.032 152.998, 163.623 159.032 C 173.995 161.684, 189.005 161.684, 199.377 159.032 C 222.966 152.998, 241.903 135.024, 249.804 111.167 C 251.989 104.570, 252.348 101.685, 252.376 90.500 C 252.407 78.484, 252.175 76.837, 249.320 68.739 C 245.146 56.902, 240.831 49.914, 232.479 41.464 C 224.226 33.115, 214.100 26.802, 203.278 23.259 C 192.445 19.713, 174.735 19.121, 164.241 21.954 M 131.830 46.027 C 121.764 51.344, 120.122 64.509, 128.596 71.950 C 132.579 75.447, 133.530 75.668, 134.435 73.308 C 134.882 72.144, 134.144 70.881, 132.066 69.255 C 130.406 67.955, 128.536 65.182, 127.909 63.090 C 124.408 51.406, 140.489 43.702, 148.202 53.367 C 149.732 55.284, 150.061 55.345, 151.449 53.968 C 152.841 52.586, 152.833 52.206, 151.364 50.109 C 149.356 47.243, 142.531 44.036, 138.500 44.066 C 136.850 44.078, 133.849 44.961, 131.830 46.027 M 217.500 45.489 C 215.850 46.218, 213.400 47.991, 212.056 49.428 C 209.850 51.787, 209.763 52.192, 211.161 53.589 C 212.558 54.987, 213.007 54.839, 215.777 52.069 C 218.328 49.519, 219.637 49, 223.523 49 C 227.509 49, 228.703 49.503, 231.600 52.400 C 234.225 55.025, 235 56.632, 235 59.450 C 235 64.070, 232.699 68.570, 229.471 70.261 C 227.240 71.430, 227.117 71.778, 228.343 73.455 C 229.680 75.283, 229.808 75.273, 232.875 73.089 C 237.137 70.054, 239.357 65.456, 239.289 59.806 C 239.215 53.621, 236.136 48.728, 230.647 46.071 C 225.808 43.729, 221.877 43.555, 217.500 45.489 M 169.265 47.542 C 160.899 49.795, 154.508 53.556, 146.980 60.658 C 131.977 74.811, 126.590 95.117, 133.471 111.585 C 136.026 117.699, 136.554 118.012, 140.735 115.880 C 142.763 114.846, 145.115 114.032, 145.961 114.070 C 146.808 114.109, 145.711 114.796, 143.524 115.596 C 137.344 117.859, 137.160 118.554, 141.549 123.063 C 157.419 139.368, 194.180 141.608, 215.344 127.560 C 228.980 118.509, 234.823 102.958, 230.931 86.076 C 226.881 68.503, 209.526 51.122, 192 47.085 C 185.777 45.652, 175.516 45.858, 169.265 47.542 M 174 49.441 C 174 50.298, 174.450 51, 175 51 C 175.550 51, 176 50.577, 176 50.059 C 176 49.541, 175.550 48.840, 175 48.500 C 174.450 48.160, 174 48.584, 174 49.441 M 179.446 49.087 C 178.573 50.499, 180.501 52.427, 181.913 51.554 C 182.511 51.184, 183 50.234, 183 49.441 C 183 47.757, 180.426 47.501, 179.446 49.087 M 187 50 C 187 50.550, 187.450 51, 188 51 C 188.550 51, 189 50.550, 189 50 C 189 49.450, 188.550 49, 188 49 C 187.450 49, 187 49.450, 187 50 M 169 51 C 169 51.550, 169.675 52, 170.500 52 C 171.325 52, 172 51.550, 172 51 C 172 50.450, 171.325 50, 170.500 50 C 169.675 50, 169 50.450, 169 51 M 191 51 C 191 51.550, 191.450 52, 192 52 C 192.550 52, 193 51.550, 193 51 C 193 50.450, 192.550 50, 192 50 C 191.450 50, 191 50.450, 191 51 M 164.362 53.500 C 163.569 55.564, 164.644 58, 166.346 58 C 167.121 58, 168.315 57.325, 169 56.500 C 169.993 55.303, 169.993 54.697, 169 53.500 C 168.315 52.675, 167.121 52, 166.346 52 C 165.571 52, 164.678 52.675, 164.362 53.500 M 194.105 53.373 C 192.439 55.381, 193.860 58.162, 196.367 57.803 C 198.823 57.451, 199.821 54.135, 197.848 52.885 C 195.995 51.710, 195.423 51.785, 194.105 53.373 M 155.380 56.452 C 154.683 58.267, 155.695 60, 157.452 60 C 158.968 60, 160.292 57.282, 159.444 55.910 C 158.570 54.495, 155.999 54.839, 155.380 56.452 M 203.364 56.493 C 203.018 57.396, 203.214 58.614, 203.800 59.200 C 205.324 60.724, 208.210 59.331, 207.812 57.265 C 207.369 54.963, 204.165 54.407, 203.364 56.493 M 157.573 62.671 C 157.142 63.793, 157.499 64.892, 158.543 65.655 C 160.814 67.316, 163.169 66.192, 162.803 63.623 C 162.415 60.902, 158.523 60.193, 157.573 62.671 M 200.667 61.667 C 198.542 63.791, 200.874 67.273, 203.750 66.269 C 205.802 65.554, 205.298 61, 203.167 61 C 202.158 61, 201.033 61.300, 200.667 61.667 M 148.390 64.426 C 147.480 66.797, 148.767 69.191, 150.747 68.810 C 151.854 68.597, 152.500 67.561, 152.500 66 C 152.500 63.149, 149.344 61.941, 148.390 64.426 M 209.958 64.550 C 208.898 65.828, 208.951 66.379, 210.258 67.687 C 211.131 68.560, 212.555 69.001, 213.422 68.668 C 215.467 67.884, 215.464 64.392, 213.418 63.607 C 211.325 62.804, 211.432 62.774, 209.958 64.550 M 152.500 76 C 151.663 77.354, 152.792 79, 154.559 79 C 155.352 79, 156 78.100, 156 77 C 156 74.930, 153.587 74.240, 152.500 76 M 206.480 76.032 C 206.092 76.660, 206.245 77.645, 206.820 78.220 C 208.164 79.564, 211.297 78.392, 210.750 76.749 C 210.194 75.078, 207.364 74.602, 206.480 76.032 M 138.571 77.571 C 136.729 79.414, 136.629 80.438, 138.035 83.066 C 139.288 85.406, 143.256 85.601, 145.429 83.429 C 147.381 81.476, 147.382 80.991, 145.443 78.223 C 143.621 75.621, 140.790 75.353, 138.571 77.571 M 217.571 77.571 C 213.520 81.622, 218.934 87.228, 223.875 84.098 C 224.631 83.619, 225.250 82, 225.250 80.500 C 225.250 76.186, 220.694 74.449, 217.571 77.571 M 156.039 82.189 C 154.918 83.392, 154 85.447, 154 86.754 C 154 89.736, 155.811 93.235, 156.981 92.512 C 157.465 92.212, 158.144 92.425, 158.490 92.984 C 159.223 94.169, 163.955 94.316, 165.700 93.206 C 166.360 92.787, 167.344 91.331, 167.887 89.972 L 168.873 87.500 168.937 89.816 C 169.097 95.660, 163.182 98.211, 158.659 94.250 C 156.748 92.576, 156.690 92.581, 157.342 94.361 C 157.888 95.855, 157.675 96.080, 156.261 95.498 C 152.075 93.775, 150.886 94.135, 154.777 95.948 C 157.129 97.044, 161.179 99.336, 163.777 101.041 L 168.500 104.142 164.500 100.586 L 160.500 97.030 163.595 97.015 C 167.597 96.996, 170 94.269, 170 89.748 C 170 85.709, 165.939 79.957, 163.161 80.063 C 161.942 80.110, 162.071 80.357, 163.648 80.993 C 167.473 82.537, 167.225 83.840, 163.209 83.301 C 158.943 82.729, 156.889 84.319, 156.646 88.382 C 156.444 91.743, 155 90.542, 155 87.014 C 155 85.106, 155.882 83.451, 157.635 82.073 C 159.084 80.933, 159.777 80, 159.174 80 C 158.571 80, 157.160 80.985, 156.039 82.189 M 195.452 82.646 C 192.485 85.848, 192.446 86.579, 195.017 90.795 C 196.863 93.824, 197.395 94.072, 201.580 93.855 C 206.087 93.622, 208.101 92.024, 207.930 88.816 C 207.891 88.092, 207.473 88.400, 207 89.500 C 206.231 91.289, 206.133 91.217, 206.070 88.821 C 205.969 84.961, 203.339 82.742, 199.408 83.201 C 195.890 83.611, 195.860 82.402, 199.352 80.993 C 201.134 80.274, 201.194 80.116, 199.702 80.063 C 198.713 80.029, 196.801 81.191, 195.452 82.646 M 204.777 81.557 C 206 82.413, 207.036 83.875, 207.079 84.807 C 207.132 85.938, 207.332 86.066, 207.682 85.192 C 208.257 83.755, 205.321 80, 203.623 80 C 203.035 80, 203.555 80.701, 204.777 81.557 M 134.688 88.646 C 133.272 90.061, 134.073 92, 136.073 92 C 137.471 92, 138.041 91.457, 137.823 90.333 C 137.466 88.492, 135.759 87.574, 134.688 88.646 M 225.688 88.646 C 224.314 90.020, 225.026 92.142, 226.750 91.810 C 227.713 91.624, 228.500 90.841, 228.500 90.070 C 228.500 88.491, 226.736 87.598, 225.688 88.646 M 175.277 92.973 C 171.584 95.224, 170.016 99.465, 172.120 101.511 C 172.879 102.249, 175.075 103.250, 177 103.734 C 179.760 104.429, 180.566 105.175, 180.812 107.258 C 181.304 111.436, 179.396 114, 175.794 114 C 174.069 114, 171.775 113.213, 170.696 112.250 C 168.795 110.554, 168.757 110.577, 169.487 113 C 171.235 118.807, 172.996 122, 174.449 122 C 175.508 122, 176 121.041, 176 118.975 C 176 116.614, 176.588 115.727, 178.684 114.930 C 182.837 113.351, 187 115.449, 187 119.121 C 187 124.756, 191.197 120.809, 192.445 114 C 192.952 111.234, 192.858 110.867, 191.994 112.250 C 190.724 114.283, 185.038 114.638, 183.200 112.800 C 182.540 112.140, 182 109.890, 182 107.800 C 182 104.697, 182.358 104, 183.953 104 C 187.121 104, 190.913 101.850, 191.608 99.659 C 192.093 98.131, 191.352 96.794, 188.642 94.311 C 184.385 90.410, 180.172 89.988, 175.277 92.973 M 141.750 92.662 C 142.438 92.940, 143.563 92.940, 144.250 92.662 C 144.938 92.385, 144.375 92.158, 143 92.158 C 141.625 92.158, 141.063 92.385, 141.750 92.662 M 193 92.623 C 193 94.565, 196.613 97, 199.495 97 L 202.333 97 198.417 100.572 C 194.614 104.041, 194.602 104.072, 198.007 101.639 C 199.936 100.261, 203.986 97.939, 207.007 96.480 C 212.028 94.054, 211.749 93.857, 205.844 95.658 C 204.175 96.166, 203.869 95.997, 204.490 94.908 C 205.140 93.769, 205.036 93.739, 203.947 94.750 C 201.692 96.843, 196.314 96.286, 194.557 93.777 C 193.701 92.555, 193 92.035, 193 92.623 M 218.750 92.662 C 219.438 92.940, 220.563 92.940, 221.250 92.662 C 221.938 92.385, 221.375 92.158, 220 92.158 C 218.625 92.158, 218.063 92.385, 218.750 92.662 M 146.750 93.662 C 147.438 93.940, 148.563 93.940, 149.250 93.662 C 149.938 93.385, 149.375 93.158, 148 93.158 C 146.625 93.158, 146.063 93.385, 146.750 93.662 M 213.750 93.662 C 214.438 93.940, 215.563 93.940, 216.250 93.662 C 216.938 93.385, 216.375 93.158, 215 93.158 C 213.625 93.158, 213.063 93.385, 213.750 93.662 M 134.384 96.442 C 133.372 99.080, 134.487 101.495, 136.876 101.835 C 140.019 102.281, 141.395 100.710, 140.608 97.573 C 140.128 95.663, 139.314 95, 137.450 95 C 136.068 95, 134.688 95.649, 134.384 96.442 M 222.410 96.375 C 221.211 99.498, 222.424 101.500, 225.514 101.500 C 228.165 101.500, 228.500 101.164, 228.500 98.500 C 228.500 95.969, 228.069 95.450, 225.744 95.183 C 223.986 94.981, 222.779 95.412, 222.410 96.375 M 146.250 103.689 C 147.213 103.941, 148.787 103.941, 149.750 103.689 C 150.713 103.438, 149.925 103.232, 148 103.232 C 146.075 103.232, 145.287 103.438, 146.250 103.689 M 212.762 103.707 C 214.006 103.946, 215.806 103.937, 216.762 103.687 C 217.718 103.437, 216.700 103.241, 214.500 103.252 C 212.300 103.263, 211.518 103.468, 212.762 103.707 M 139.269 104.693 C 140.242 104.947, 141.592 104.930, 142.269 104.656 C 142.946 104.382, 142.150 104.175, 140.500 104.195 C 138.850 104.215, 138.296 104.439, 139.269 104.693 M 157.500 105.399 C 160.250 106.075, 163.625 107.187, 165 107.869 C 167.358 109.040, 167.389 109.022, 165.546 107.546 C 163.353 105.790, 157.535 103.970, 154.500 104.091 C 153.400 104.134, 154.750 104.723, 157.500 105.399 M 200.500 106.043 C 198.300 107.137, 197.400 107.736, 198.500 107.372 C 199.600 107.009, 202.525 106.132, 205 105.423 C 208.068 104.545, 208.704 104.122, 207 104.094 C 205.625 104.071, 202.700 104.948, 200.500 106.043 M 221.269 104.693 C 222.242 104.947, 223.592 104.930, 224.269 104.656 C 224.946 104.382, 224.150 104.175, 222.500 104.195 C 220.850 104.215, 220.296 104.439, 221.269 104.693 M 141.500 107 C 141.101 107.646, 141.224 108.624, 141.774 109.174 C 142.441 109.841, 143.016 109.783, 143.500 109 C 143.899 108.354, 143.776 107.376, 143.226 106.826 C 142.559 106.159, 141.984 106.217, 141.500 107 M 219.500 107 C 219.101 107.646, 219.224 108.624, 219.774 109.174 C 220.441 109.841, 221.016 109.783, 221.500 109 C 221.899 108.354, 221.776 107.376, 221.226 106.826 C 220.559 106.159, 219.984 106.217, 219.500 107 M 135.533 109.947 C 134.653 111.370, 135.775 113, 137.632 113 C 138.508 113, 139.010 112.297, 138.823 111.333 C 138.434 109.324, 136.437 108.484, 135.533 109.947 M 223.624 110.538 C 223.282 111.429, 223.686 112.326, 224.584 112.671 C 226.451 113.387, 228.495 111.610, 227.554 110.087 C 226.573 108.499, 224.306 108.759, 223.624 110.538 M 150.190 112.850 C 148.919 113.207, 152.162 113.500, 157.397 113.500 C 162.631 113.500, 166.145 113.194, 165.207 112.820 C 163.061 111.966, 153.262 111.985, 150.190 112.850 M 199.083 112.363 C 199.313 112.563, 203.100 112.955, 207.500 113.234 C 211.900 113.512, 214.375 113.394, 213 112.970 C 210.512 112.203, 198.289 111.670, 199.083 112.363 M 219.859 116.022 C 222.257 117.110, 224.507 117.981, 224.859 117.958 C 226.121 117.876, 218.468 114.083, 217 114.064 C 216.175 114.053, 217.462 114.934, 219.859 116.022 M 145.701 119.632 C 144.519 120.814, 144.922 123.756, 146.341 124.300 C 148.356 125.074, 150.244 123.504, 149.837 121.392 C 149.466 119.466, 146.942 118.392, 145.701 119.632 M 212.591 120.625 C 212.220 121.590, 212.527 122.956, 213.286 123.714 C 215.198 125.627, 218.177 124.247, 217.803 121.623 C 217.419 118.934, 213.525 118.188, 212.591 120.625 M 153 123 C 153 124.506, 153.522 125.046, 154.750 124.810 C 155.713 124.624, 156.500 123.810, 156.500 123 C 156.500 122.190, 155.713 121.376, 154.750 121.190 C 153.522 120.954, 153 121.494, 153 123 M 206.688 121.646 C 205.272 123.061, 206.073 125, 208.073 125 C 209.471 125, 210.041 124.457, 209.823 123.333 C 209.466 121.492, 207.759 120.574, 206.688 121.646 M 156.441 128.096 C 155.384 129.806, 158.718 132.682, 160.126 131.274 C 160.753 130.647, 160.995 129.429, 160.664 128.567 C 159.972 126.764, 157.439 126.481, 156.441 128.096 M 202 128.941 C 202 131.462, 203.715 132.482, 205.484 131.013 C 207.305 129.502, 206.313 127, 203.893 127 C 202.686 127, 202 127.703, 202 128.941 M 166.469 132.050 C 165.519 133.588, 166.820 134.580, 168.104 133.296 C 168.822 132.578, 168.839 132.019, 168.156 131.597 C 167.596 131.251, 166.837 131.455, 166.469 132.050 M 194.639 131.694 C 193.513 132.820, 193.954 134, 195.500 134 C 196.325 134, 197 133.577, 197 133.059 C 197 131.798, 195.438 130.895, 194.639 131.694 M 172 133.500 C 172 134.325, 172.450 135, 173 135 C 173.550 135, 174 134.325, 174 133.500 C 174 132.675, 173.550 132, 173 132 C 172.450 132, 172 132.675, 172 133.500 M 188.694 132.639 C 187.895 133.438, 188.798 135, 190.059 135 C 190.577 135, 191 134.325, 191 133.500 C 191 131.954, 189.820 131.513, 188.694 132.639 M 131.250 178.522 C 127.161 181.414, 128.657 188.957, 133.611 190.422 C 135.860 191.087, 141.078 187.752, 139.798 186.467 C 139.411 186.079, 138.367 186.490, 137.476 187.381 C 135.518 189.339, 134.901 189.379, 132.605 187.701 C 130.386 186.078, 130.776 181.155, 133.247 179.608 C 134.544 178.796, 135.534 178.852, 137.094 179.827 C 139.297 181.202, 141.041 180.626, 139.433 179.054 C 137.527 177.190, 133.504 176.928, 131.250 178.522 M 142 183.500 C 142 187.167, 142.436 190, 143 190 C 143.550 190, 144 188.167, 144 185.927 C 144 182.588, 144.315 181.913, 145.750 182.185 C 146.973 182.417, 147.593 183.643, 147.810 186.258 C 148.194 190.881, 150 191.238, 150 186.691 C 150 182.563, 147.876 179.450, 145.645 180.306 C 144.462 180.760, 144 180.385, 144 178.969 C 144 177.886, 143.550 177, 143 177 C 142.436 177, 142 179.833, 142 183.500 M 186 183.500 C 186 190.427, 187.669 192.530, 188.190 186.258 C 188.407 183.643, 189.027 182.417, 190.250 182.185 C 191.685 181.913, 192 182.588, 192 185.927 C 192 188.167, 192.475 190, 193.055 190 C 193.689 190, 193.988 188.107, 193.805 185.250 C 193.519 180.797, 193.328 180.502, 190.750 180.539 C 188.760 180.568, 188 180.084, 188 178.789 C 188 177.805, 187.550 177, 187 177 C 186.436 177, 186 179.833, 186 183.500 M 202 178.969 C 202 180.315, 201.522 180.754, 200.487 180.357 C 198.124 179.450, 196 181.919, 196 185.573 C 196 189.331, 197.921 190.929, 201.595 190.227 C 203.836 189.798, 204 189.331, 204 183.383 C 204 179.794, 203.562 177, 203 177 C 202.450 177, 202 177.886, 202 178.969 M 171.786 179.183 C 171.035 181.246, 172.386 190.303, 173.500 190.670 C 174.836 191.111, 174.655 180.255, 173.303 178.903 C 172.586 178.186, 172.117 178.273, 171.786 179.183 M 152.571 181.571 C 148.992 185.151, 152.845 192.148, 157.428 190.389 C 159.917 189.434, 159.254 187.898, 156.636 188.555 C 155.008 188.964, 154.083 188.658, 153.667 187.574 C 153.189 186.328, 153.786 186, 156.531 186 C 159.205 186, 160 185.587, 160 184.200 C 160 180.265, 155.478 178.665, 152.571 181.571 M 162.050 181.440 C 160.325 183.518, 161.161 188.050, 163.562 189.634 C 165.313 190.789, 165.918 190.776, 167.562 189.546 C 169.397 188.174, 169.347 188.108, 166.609 188.299 C 165.019 188.409, 163.519 187.938, 163.276 187.250 C 162.985 186.428, 163.869 186, 165.858 186 C 169.451 186, 170.053 185.262, 168.915 182.250 C 167.931 179.648, 163.929 179.175, 162.050 181.440 M 177.667 180.667 C 176.209 182.125, 177.133 183.005, 179.500 182.411 C 180.965 182.043, 182 182.213, 182 182.822 C 182 183.393, 181.033 184.005, 179.852 184.180 C 176.608 184.663, 175.149 187.578, 177.150 189.579 C 178.389 190.817, 179.226 190.949, 180.730 190.144 C 182.111 189.406, 183.013 189.413, 183.768 190.168 C 184.534 190.934, 184.698 189.987, 184.339 186.871 C 184.062 184.467, 183.662 181.938, 183.449 181.250 C 183.045 179.942, 178.818 179.515, 177.667 180.667 M 206.440 182.451 C 203.532 186.889, 207.570 192.371, 212 190 C 214.745 188.531, 214.506 187.869, 211.355 188.212 C 209.900 188.370, 208.513 187.938, 208.272 187.250 C 207.983 186.426, 208.883 186, 210.917 186 C 213.219 186, 214 185.544, 214 184.200 C 214 179.767, 208.962 178.602, 206.440 182.451 M 216.032 181.050 C 216.014 181.903, 216.517 183.117, 217.149 183.749 C 218.014 184.614, 217.884 185.528, 216.626 187.449 C 214.804 190.229, 215.940 190.982, 218.075 188.410 C 219.275 186.963, 219.512 186.979, 220.687 188.587 C 221.398 189.559, 222.273 190.060, 222.632 189.701 C 222.991 189.342, 222.705 188.349, 221.995 187.495 C 220.996 186.291, 220.964 185.374, 221.853 183.423 C 223.480 179.853, 223.287 179.430, 220.984 181.514 C 219.031 183.282, 218.923 183.279, 217.516 181.419 C 216.356 179.886, 216.057 179.812, 216.032 181.050 M 153.500 183 C 153.148 183.569, 154.009 184, 155.500 184 C 156.991 184, 157.852 183.569, 157.500 183 C 157.160 182.450, 156.260 182, 155.500 182 C 154.740 182, 153.840 182.450, 153.500 183 M 163.500 183 C 163.148 183.569, 164.009 184, 165.500 184 C 166.991 184, 167.852 183.569, 167.500 183 C 167.160 182.450, 166.260 182, 165.500 182 C 164.740 182, 163.840 182.450, 163.500 183 M 198.187 185.250 C 198.387 187.333, 199.039 188.500, 200 188.500 C 200.961 188.500, 201.613 187.333, 201.813 185.250 C 202.078 182.504, 201.797 182, 200 182 C 198.203 182, 197.922 182.504, 198.187 185.250 M 208 183 C 208 183.550, 208.900 184, 210 184 C 211.100 184, 212 183.550, 212 183 C 212 182.450, 211.100 182, 210 182 C 208.900 182, 208 182.450, 208 183 M 178 187.573 C 178 188.505, 178.680 189.015, 179.667 188.823 C 182.176 188.337, 182.520 186, 180.083 186 C 178.855 186, 178 186.646, 178 187.573 M 141 198.037 C 141 200.626, 144.209 210, 145.096 210 C 145.620 210, 146.502 208.762, 147.054 207.250 C 147.607 205.738, 148.322 203.825, 148.643 203 C 149.019 202.035, 149.636 202.899, 150.373 205.420 C 152.039 211.117, 153.641 210.948, 155.442 204.883 C 158.086 195.980, 156.754 193.879, 153.932 202.500 L 152.623 206.500 151.222 201.639 C 149.677 196.278, 148.790 196.450, 146.653 202.524 L 145.254 206.500 144.100 202.292 C 143.006 198.305, 141 195.551, 141 198.037 M 159.530 202.527 C 158.139 205.674, 157 208.643, 157 209.124 C 157 210.819, 158.873 209.977, 159.500 208 C 160.358 205.298, 164.584 205.353, 166.046 208.086 C 168.052 211.835, 168.278 209.215, 166.399 203.990 C 163.559 196.091, 162.478 195.861, 159.530 202.527 M 170 203.441 L 170 210 174 210 C 176.200 210, 178 209.550, 178 209 C 178 208.450, 176.650 208, 175 208 C 172.071 208, 172 207.882, 172 203.059 C 172 200.341, 171.550 197.840, 171 197.500 C 170.372 197.112, 170 199.323, 170 203.441 M 180 203.441 L 180 210 184 210 C 186.200 210, 188 209.550, 188 209 C 188 208.450, 186.650 208, 185 208 C 182.071 208, 182 207.882, 182 203.059 C 182 200.341, 181.550 197.840, 181 197.500 C 180.372 197.112, 180 199.323, 180 203.441 M 189.409 198.377 C 189.118 199.134, 189.020 201.947, 189.190 204.627 L 189.500 209.500 194.250 209.805 C 197.107 209.988, 199 209.689, 199 209.055 C 199 208.475, 197.200 208, 195 208 C 192.111 208, 191 207.583, 191 206.500 C 191 205.457, 192.049 205, 194.441 205 C 199.205 205, 199.897 203.194, 195.279 202.812 C 192.645 202.593, 191.417 201.975, 191.185 200.750 C 190.913 199.312, 191.590 199, 194.986 199 C 197.486 199, 198.874 198.605, 198.500 198 C 197.547 196.458, 190.026 196.770, 189.409 198.377 M 200.500 198 C 200.160 198.550, 200.809 199, 201.941 199 C 203.770 199, 204 199.614, 204 204.500 C 204 207.525, 204.450 210, 205 210 C 205.550 210, 206 207.525, 206 204.500 C 206 199.266, 206.124 199, 208.559 199 C 210.010 199, 210.851 198.567, 210.500 198 C 210.160 197.450, 207.910 197, 205.500 197 C 203.090 197, 200.840 197.450, 200.500 198 M 162.015 200.668 C 162.007 201.311, 161.727 202.548, 161.393 203.418 C 160.995 204.456, 161.338 205, 162.393 205 C 163.277 205, 163.993 204.438, 163.985 203.750 C 163.965 202.129, 162.036 199.110, 162.015 200.668" stroke="none" fill="#e8c842" fill-rule="evenodd"/><path d="M 0 114.503 L 0 229.005 189.750 228.753 L 379.500 228.500 379.754 114.250 L 380.008 -0 190.004 -0 L 0 0 0 114.503 M 0.483 115 C 0.483 177.975, 0.603 203.738, 0.750 172.250 C 0.896 140.763, 0.896 89.238, 0.750 57.750 C 0.603 26.263, 0.483 52.025, 0.483 115 M 165 15.940 C 142.384 20.729, 122.439 36.085, 112.491 56.367 C 107.099 67.361, 105.103 74.638, 104.308 86.202 C 101.908 121.121, 124.079 153.150, 158.086 163.894 C 168.392 167.150, 179.516 168.241, 189.617 166.985 C 217.049 163.577, 238.827 148.386, 250.525 124.500 C 256.373 112.558, 258.309 104.137, 258.339 90.500 C 258.448 41.778, 213.300 5.714, 165 15.940 M 164.241 21.954 C 143.569 27.536, 127.226 40.430, 118.145 58.322 C 112.068 70.297, 110.484 77.245, 110.583 91.500 C 110.651 101.515, 111.084 104.768, 113.200 111.167 C 121.083 135.011, 140.032 152.998, 163.623 159.032 C 173.995 161.684, 189.005 161.684, 199.377 159.032 C 222.966 152.998, 241.903 135.024, 249.804 111.167 C 251.989 104.570, 252.348 101.685, 252.376 90.500 C 252.407 78.484, 252.175 76.837, 249.320 68.739 C 245.146 56.902, 240.831 49.914, 232.479 41.464 C 224.226 33.115, 214.100 26.802, 203.278 23.259 C 192.445 19.713, 174.735 19.121, 164.241 21.954 M 131.830 46.027 C 121.764 51.344, 120.122 64.509, 128.596 71.950 C 132.579 75.447, 133.530 75.668, 134.435 73.308 C 134.882 72.144, 134.144 70.881, 132.066 69.255 C 130.406 67.955, 128.536 65.182, 127.909 63.090 C 124.408 51.406, 140.489 43.702, 148.202 53.367 C 149.732 55.284, 150.061 55.345, 151.449 53.968 C 152.841 52.586, 152.833 52.206, 151.364 50.109 C 149.356 47.243, 142.531 44.036, 138.500 44.066 C 136.850 44.078, 133.849 44.961, 131.830 46.027 M 217.500 45.489 C 215.850 46.218, 213.400 47.991, 212.056 49.428 C 209.850 51.787, 209.763 52.192, 211.161 53.589 C 212.558 54.987, 213.007 54.839, 215.777 52.069 C 218.328 49.519, 219.637 49, 223.523 49 C 227.509 49, 228.703 49.503, 231.600 52.400 C 234.225 55.025, 235 56.632, 235 59.450 C 235 64.070, 232.699 68.570, 229.471 70.261 C 227.240 71.430, 227.117 71.778, 228.343 73.455 C 229.680 75.283, 229.808 75.273, 232.875 73.089 C 237.137 70.054, 239.357 65.456, 239.289 59.806 C 239.215 53.621, 236.136 48.728, 230.647 46.071 C 225.808 43.729, 221.877 43.555, 217.500 45.489 M 169.265 47.542 C 160.899 49.795, 154.508 53.556, 146.980 60.658 C 131.977 74.811, 126.590 95.117, 133.471 111.585 C 136.026 117.699, 136.554 118.012, 140.735 115.880 C 142.763 114.846, 145.115 114.032, 145.961 114.070 C 146.808 114.109, 145.711 114.796, 143.524 115.596 C 137.344 117.859, 137.160 118.554, 141.549 123.063 C 157.419 139.368, 194.180 141.608, 215.344 127.560 C 228.980 118.509, 234.823 102.958, 230.931 86.076 C 226.881 68.503, 209.526 51.122, 192 47.085 C 185.777 45.652, 175.516 45.858, 169.265 47.542 M 174 49.441 C 174 50.298, 174.450 51, 175 51 C 175.550 51, 176 50.577, 176 50.059 C 176 49.541, 175.550 48.840, 175 48.500 C 174.450 48.160, 174 48.584, 174 49.441 M 179.446 49.087 C 178.573 50.499, 180.501 52.427, 181.913 51.554 C 182.511 51.184, 183 50.234, 183 49.441 C 183 47.757, 180.426 47.501, 179.446 49.087 M 187 50 C 187 50.550, 187.450 51, 188 51 C 188.550 51, 189 50.550, 189 50 C 189 49.450, 188.550 49, 188 49 C 187.450 49, 187 49.450, 187 50 M 169 51 C 169 51.550, 169.675 52, 170.500 52 C 171.325 52, 172 51.550, 172 51 C 172 50.450, 171.325 50, 170.500 50 C 169.675 50, 169 50.450, 169 51 M 191 51 C 191 51.550, 191.450 52, 192 52 C 192.550 52, 193 51.550, 193 51 C 193 50.450, 192.550 50, 192 50 C 191.450 50, 191 50.450, 191 51 M 164.362 53.500 C 163.569 55.564, 164.644 58, 166.346 58 C 167.121 58, 168.315 57.325, 169 56.500 C 169.993 55.303, 169.993 54.697, 169 53.500 C 168.315 52.675, 167.121 52, 166.346 52 C 165.571 52, 164.678 52.675, 164.362 53.500 M 194.105 53.373 C 192.439 55.381, 193.860 58.162, 196.367 57.803 C 198.823 57.451, 199.821 54.135, 197.848 52.885 C 195.995 51.710, 195.423 51.785, 194.105 53.373 M 155.380 56.452 C 154.683 58.267, 155.695 60, 157.452 60 C 158.968 60, 160.292 57.282, 159.444 55.910 C 158.570 54.495, 155.999 54.839, 155.380 56.452 M 203.364 56.493 C 203.018 57.396, 203.214 58.614, 203.800 59.200 C 205.324 60.724, 208.210 59.331, 207.812 57.265 C 207.369 54.963, 204.165 54.407, 203.364 56.493 M 157.573 62.671 C 157.142 63.793, 157.499 64.892, 158.543 65.655 C 160.814 67.316, 163.169 66.192, 162.803 63.623 C 162.415 60.902, 158.523 60.193, 157.573 62.671 M 200.667 61.667 C 198.542 63.791, 200.874 67.273, 203.750 66.269 C 205.802 65.554, 205.298 61, 203.167 61 C 202.158 61, 201.033 61.300, 200.667 61.667 M 148.390 64.426 C 147.480 66.797, 148.767 69.191, 150.747 68.810 C 151.854 68.597, 152.500 67.561, 152.500 66 C 152.500 63.149, 149.344 61.941, 148.390 64.426 M 209.958 64.550 C 208.898 65.828, 208.951 66.379, 210.258 67.687 C 211.131 68.560, 212.555 69.001, 213.422 68.668 C 215.467 67.884, 215.464 64.392, 213.418 63.607 C 211.325 62.804, 211.432 62.774, 209.958 64.550 M 152.500 76 C 151.663 77.354, 152.792 79, 154.559 79 C 155.352 79, 156 78.100, 156 77 C 156 74.930, 153.587 74.240, 152.500 76 M 206.480 76.032 C 206.092 76.660, 206.245 77.645, 206.820 78.220 C 208.164 79.564, 211.297 78.392, 210.750 76.749 C 210.194 75.078, 207.364 74.602, 206.480 76.032 M 138.571 77.571 C 136.729 79.414, 136.629 80.438, 138.035 83.066 C 139.288 85.406, 143.256 85.601, 145.429 83.429 C 147.381 81.476, 147.382 80.991, 145.443 78.223 C 143.621 75.621, 140.790 75.353, 138.571 77.571 M 217.571 77.571 C 213.520 81.622, 218.934 87.228, 223.875 84.098 C 224.631 83.619, 225.250 82, 225.250 80.500 C 225.250 76.186, 220.694 74.449, 217.571 77.571 M 156.039 82.189 C 154.918 83.392, 154 85.447, 154 86.754 C 154 89.736, 155.811 93.235, 156.981 92.512 C 157.465 92.212, 158.144 92.425, 158.490 92.984 C 159.223 94.169, 163.955 94.316, 165.700 93.206 C 166.360 92.787, 167.344 91.331, 167.887 89.972 L 168.873 87.500 168.937 89.816 C 169.097 95.660, 163.182 98.211, 158.659 94.250 C 156.748 92.576, 156.690 92.581, 157.342 94.361 C 157.888 95.855, 157.675 96.080, 156.261 95.498 C 152.075 93.775, 150.886 94.135, 154.777 95.948 C 157.129 97.044, 161.179 99.336, 163.777 101.041 L 168.500 104.142 164.500 100.586 L 160.500 97.030 163.595 97.015 C 167.597 96.996, 170 94.269, 170 89.748 C 170 85.709, 165.939 79.957, 163.161 80.063 C 161.942 80.110, 162.071 80.357, 163.648 80.993 C 167.473 82.537, 167.225 83.840, 163.209 83.301 C 158.943 82.729, 156.889 84.319, 156.646 88.382 C 156.444 91.743, 155 90.542, 155 87.014 C 155 85.106, 155.882 83.451, 157.635 82.073 C 159.084 80.933, 159.777 80, 159.174 80 C 158.571 80, 157.160 80.985, 156.039 82.189 M 195.452 82.646 C 192.485 85.848, 192.446 86.579, 195.017 90.795 C 196.863 93.824, 197.395 94.072, 201.580 93.855 C 206.087 93.622, 208.101 92.024, 207.930 88.816 C 207.891 88.092, 207.473 88.400, 207 89.500 C 206.231 91.289, 206.133 91.217, 206.070 88.821 C 205.969 84.961, 203.339 82.742, 199.408 83.201 C 195.890 83.611, 195.860 82.402, 199.352 80.993 C 201.134 80.274, 201.194 80.116, 199.702 80.063 C 198.713 80.029, 196.801 81.191, 195.452 82.646 M 204.777 81.557 C 206 82.413, 207.036 83.875, 207.079 84.807 C 207.132 85.938, 207.332 86.066, 207.682 85.192 C 208.257 83.755, 205.321 80, 203.623 80 C 203.035 80, 203.555 80.701, 204.777 81.557 M 134.688 88.646 C 133.272 90.061, 134.073 92, 136.073 92 C 137.471 92, 138.041 91.457, 137.823 90.333 C 137.466 88.492, 135.759 87.574, 134.688 88.646 M 225.688 88.646 C 224.314 90.020, 225.026 92.142, 226.750 91.810 C 227.713 91.624, 228.500 90.841, 228.500 90.070 C 228.500 88.491, 226.736 87.598, 225.688 88.646 M 175.277 92.973 C 171.584 95.224, 170.016 99.465, 172.120 101.511 C 172.879 102.249, 175.075 103.250, 177 103.734 C 179.760 104.429, 180.566 105.175, 180.812 107.258 C 181.304 111.436, 179.396 114, 175.794 114 C 174.069 114, 171.775 113.213, 170.696 112.250 C 168.795 110.554, 168.757 110.577, 169.487 113 C 171.235 118.807, 172.996 122, 174.449 122 C 175.508 122, 176 121.041, 176 118.975 C 176 116.614, 176.588 115.727, 178.684 114.930 C 182.837 113.351, 187 115.449, 187 119.121 C 187 124.756, 191.197 120.809, 192.445 114 C 192.952 111.234, 192.858 110.867, 191.994 112.250 C 190.724 114.283, 185.038 114.638, 183.200 112.800 C 182.540 112.140, 182 109.890, 182 107.800 C 182 104.697, 182.358 104, 183.953 104 C 187.121 104, 190.913 101.850, 191.608 99.659 C 192.093 98.131, 191.352 96.794, 188.642 94.311 C 184.385 90.410, 180.172 89.988, 175.277 92.973 M 141.750 92.662 C 142.438 92.940, 143.563 92.940, 144.250 92.662 C 144.938 92.385, 144.375 92.158, 143 92.158 C 141.625 92.158, 141.063 92.385, 141.750 92.662 M 193 92.623 C 193 94.565, 196.613 97, 199.495 97 L 202.333 97 198.417 100.572 C 194.614 104.041, 194.602 104.072, 198.007 101.639 C 199.936 100.261, 203.986 97.939, 207.007 96.480 C 212.028 94.054, 211.749 93.857, 205.844 95.658 C 204.175 96.166, 203.869 95.997, 204.490 94.908 C 205.140 93.769, 205.036 93.739, 203.947 94.750 C 201.692 96.843, 196.314 96.286, 194.557 93.777 C 193.701 92.555, 193 92.035, 193 92.623 M 218.750 92.662 C 219.438 92.940, 220.563 92.940, 221.250 92.662 C 221.938 92.385, 221.375 92.158, 220 92.158 C 218.625 92.158, 218.063 92.385, 218.750 92.662 M 146.750 93.662 C 147.438 93.940, 148.563 93.940, 149.250 93.662 C 149.938 93.385, 149.375 93.158, 148 93.158 C 146.625 93.158, 146.063 93.385, 146.750 93.662 M 213.750 93.662 C 214.438 93.940, 215.563 93.940, 216.250 93.662 C 216.938 93.385, 216.375 93.158, 215 93.158 C 213.625 93.158, 213.063 93.385, 213.750 93.662 M 134.384 96.442 C 133.372 99.080, 134.487 101.495, 136.876 101.835 C 140.019 102.281, 141.395 100.710, 140.608 97.573 C 140.128 95.663, 139.314 95, 137.450 95 C 136.068 95, 134.688 95.649, 134.384 96.442 M 222.410 96.375 C 221.211 99.498, 222.424 101.500, 225.514 101.500 C 228.165 101.500, 228.500 101.164, 228.500 98.500 C 228.500 95.969, 228.069 95.450, 225.744 95.183 C 223.986 94.981, 222.779 95.412, 222.410 96.375 M 146.250 103.689 C 147.213 103.941, 148.787 103.941, 149.750 103.689 C 150.713 103.438, 149.925 103.232, 148 103.232 C 146.075 103.232, 145.287 103.438, 146.250 103.689 M 212.762 103.707 C 214.006 103.946, 215.806 103.937, 216.762 103.687 C 217.718 103.437, 216.700 103.241, 214.500 103.252 C 212.300 103.263, 211.518 103.468, 212.762 103.707 M 139.269 104.693 C 140.242 104.947, 141.592 104.930, 142.269 104.656 C 142.946 104.382, 142.150 104.175, 140.500 104.195 C 138.850 104.215, 138.296 104.439, 139.269 104.693 M 157.500 105.399 C 160.250 106.075, 163.625 107.187, 165 107.869 C 167.358 109.040, 167.389 109.022, 165.546 107.546 C 163.353 105.790, 157.535 103.970, 154.500 104.091 C 153.400 104.134, 154.750 104.723, 157.500 105.399 M 200.500 106.043 C 198.300 107.137, 197.400 107.736, 198.500 107.372 C 199.600 107.009, 202.525 106.132, 205 105.423 C 208.068 104.545, 208.704 104.122, 207 104.094 C 205.625 104.071, 202.700 104.948, 200.500 106.043 M 221.269 104.693 C 222.242 104.947, 223.592 104.930, 224.269 104.656 C 224.946 104.382, 224.150 104.175, 222.500 104.195 C 220.850 104.215, 220.296 104.439, 221.269 104.693 M 141.500 107 C 141.101 107.646, 141.224 108.624, 141.774 109.174 C 142.441 109.841, 143.016 109.783, 143.500 109 C 143.899 108.354, 143.776 107.376, 143.226 106.826 C 142.559 106.159, 141.984 106.217, 141.500 107 M 219.500 107 C 219.101 107.646, 219.224 108.624, 219.774 109.174 C 220.441 109.841, 221.016 109.783, 221.500 109 C 221.899 108.354, 221.776 107.376, 221.226 106.826 C 220.559 106.159, 219.984 106.217, 219.500 107 M 135.533 109.947 C 134.653 111.370, 135.775 113, 137.632 113 C 138.508 113, 139.010 112.297, 138.823 111.333 C 138.434 109.324, 136.437 108.484, 135.533 109.947 M 223.624 110.538 C 223.282 111.429, 223.686 112.326, 224.584 112.671 C 226.451 113.387, 228.495 111.610, 227.554 110.087 C 226.573 108.499, 224.306 108.759, 223.624 110.538 M 150.190 112.850 C 148.919 113.207, 152.162 113.500, 157.397 113.500 C 162.631 113.500, 166.145 113.194, 165.207 112.820 C 163.061 111.966, 153.262 111.985, 150.190 112.850 M 199.083 112.363 C 199.313 112.563, 203.100 112.955, 207.500 113.234 C 211.900 113.512, 214.375 113.394, 213 112.970 C 210.512 112.203, 198.289 111.670, 199.083 112.363 M 219.859 116.022 C 222.257 117.110, 224.507 117.981, 224.859 117.958 C 226.121 117.876, 218.468 114.083, 217 114.064 C 216.175 114.053, 217.462 114.934, 219.859 116.022 M 145.701 119.632 C 144.519 120.814, 144.922 123.756, 146.341 124.300 C 148.356 125.074, 150.244 123.504, 149.837 121.392 C 149.466 119.466, 146.942 118.392, 145.701 119.632 M 212.591 120.625 C 212.220 121.590, 212.527 122.956, 213.286 123.714 C 215.198 125.627, 218.177 124.247, 217.803 121.623 C 217.419 118.934, 213.525 118.188, 212.591 120.625 M 153 123 C 153 124.506, 153.522 125.046, 154.750 124.810 C 155.713 124.624, 156.500 123.810, 156.500 123 C 156.500 122.190, 155.713 121.376, 154.750 121.190 C 153.522 120.954, 153 121.494, 153 123 M 206.688 121.646 C 205.272 123.061, 206.073 125, 208.073 125 C 209.471 125, 210.041 124.457, 209.823 123.333 C 209.466 121.492, 207.759 120.574, 206.688 121.646 M 156.441 128.096 C 155.384 129.806, 158.718 132.682, 160.126 131.274 C 160.753 130.647, 160.995 129.429, 160.664 128.567 C 159.972 126.764, 157.439 126.481, 156.441 128.096 M 202 128.941 C 202 131.462, 203.715 132.482, 205.484 131.013 C 207.305 129.502, 206.313 127, 203.893 127 C 202.686 127, 202 127.703, 202 128.941 M 166.469 132.050 C 165.519 133.588, 166.820 134.580, 168.104 133.296 C 168.822 132.578, 168.839 132.019, 168.156 131.597 C 167.596 131.251, 166.837 131.455, 166.469 132.050 M 194.639 131.694 C 193.513 132.820, 193.954 134, 195.500 134 C 196.325 134, 197 133.577, 197 133.059 C 197 131.798, 195.438 130.895, 194.639 131.694 M 172 133.500 C 172 134.325, 172.450 135, 173 135 C 173.550 135, 174 134.325, 174 133.500 C 174 132.675, 173.550 132, 173 132 C 172.450 132, 172 132.675, 172 133.500 M 188.694 132.639 C 187.895 133.438, 188.798 135, 190.059 135 C 190.577 135, 191 134.325, 191 133.500 C 191 131.954, 189.820 131.513, 188.694 132.639 M 131.250 178.522 C 127.161 181.414, 128.657 188.957, 133.611 190.422 C 135.860 191.087, 141.078 187.752, 139.798 186.467 C 139.411 186.079, 138.367 186.490, 137.476 187.381 C 135.518 189.339, 134.901 189.379, 132.605 187.701 C 130.386 186.078, 130.776 181.155, 133.247 179.608 C 134.544 178.796, 135.534 178.852, 137.094 179.827 C 139.297 181.202, 141.041 180.626, 139.433 179.054 C 137.527 177.190, 133.504 176.928, 131.250 178.522 M 142 183.500 C 142 187.167, 142.436 190, 143 190 C 143.550 190, 144 188.167, 144 185.927 C 144 182.588, 144.315 181.913, 145.750 182.185 C 146.973 182.417, 147.593 183.643, 147.810 186.258 C 148.194 190.881, 150 191.238, 150 186.691 C 150 182.563, 147.876 179.450, 145.645 180.306 C 144.462 180.760, 144 180.385, 144 178.969 C 144 177.886, 143.550 177, 143 177 C 142.436 177, 142 179.833, 142 183.500 M 186 183.500 C 186 190.427, 187.669 192.530, 188.190 186.258 C 188.407 183.643, 189.027 182.417, 190.250 182.185 C 191.685 181.913, 192 182.588, 192 185.927 C 192 188.167, 192.475 190, 193.055 190 C 193.689 190, 193.988 188.107, 193.805 185.250 C 193.519 180.797, 193.328 180.502, 190.750 180.539 C 188.760 180.568, 188 180.084, 188 178.789 C 188 177.805, 187.550 177, 187 177 C 186.436 177, 186 179.833, 186 183.500 M 202 178.969 C 202 180.315, 201.522 180.754, 200.487 180.357 C 198.124 179.450, 196 181.919, 196 185.573 C 196 189.331, 197.921 190.929, 201.595 190.227 C 203.836 189.798, 204 189.331, 204 183.383 C 204 179.794, 203.562 177, 203 177 C 202.450 177, 202 177.886, 202 178.969 M 171.786 179.183 C 171.035 181.246, 172.386 190.303, 173.500 190.670 C 174.836 191.111, 174.655 180.255, 173.303 178.903 C 172.586 178.186, 172.117 178.273, 171.786 179.183 M 152.571 181.571 C 148.992 185.151, 152.845 192.148, 157.428 190.389 C 159.917 189.434, 159.254 187.898, 156.636 188.555 C 155.008 188.964, 154.083 188.658, 153.667 187.574 C 153.189 186.328, 153.786 186, 156.531 186 C 159.205 186, 160 185.587, 160 184.200 C 160 180.265, 155.478 178.665, 152.571 181.571 M 162.050 181.440 C 160.325 183.518, 161.161 188.050, 163.562 189.634 C 165.313 190.789, 165.918 190.776, 167.562 189.546 C 169.397 188.174, 169.347 188.108, 166.609 188.299 C 165.019 188.409, 163.519 187.938, 163.276 187.250 C 162.985 186.428, 163.869 186, 165.858 186 C 169.451 186, 170.053 185.262, 168.915 182.250 C 167.931 179.648, 163.929 179.175, 162.050 181.440 M 177.667 180.667 C 176.209 182.125, 177.133 183.005, 179.500 182.411 C 180.965 182.043, 182 182.213, 182 182.822 C 182 183.393, 181.033 184.005, 179.852 184.180 C 176.608 184.663, 175.149 187.578, 177.150 189.579 C 178.389 190.817, 179.226 190.949, 180.730 190.144 C 182.111 189.406, 183.013 189.413, 183.768 190.168 C 184.534 190.934, 184.698 189.987, 184.339 186.871 C 184.062 184.467, 183.662 181.938, 183.449 181.250 C 183.045 179.942, 178.818 179.515, 177.667 180.667 M 206.440 182.451 C 203.532 186.889, 207.570 192.371, 212 190 C 214.745 188.531, 214.506 187.869, 211.355 188.212 C 209.900 188.370, 208.513 187.938, 208.272 187.250 C 207.983 186.426, 208.883 186, 210.917 186 C 213.219 186, 214 185.544, 214 184.200 C 214 179.767, 208.962 178.602, 206.440 182.451 M 216.032 181.050 C 216.014 181.903, 216.517 183.117, 217.149 183.749 C 218.014 184.614, 217.884 185.528, 216.626 187.449 C 214.804 190.229, 215.940 190.982, 218.075 188.410 C 219.275 186.963, 219.512 186.979, 220.687 188.587 C 221.398 189.559, 222.273 190.060, 222.632 189.701 C 222.991 189.342, 222.705 188.349, 221.995 187.495 C 220.996 186.291, 220.964 185.374, 221.853 183.423 C 223.480 179.853, 223.287 179.430, 220.984 181.514 C 219.031 183.282, 218.923 183.279, 217.516 181.419 C 216.356 179.886, 216.057 179.812, 216.032 181.050 M 153.500 183 C 153.148 183.569, 154.009 184, 155.500 184 C 156.991 184, 157.852 183.569, 157.500 183 C 157.160 182.450, 156.260 182, 155.500 182 C 154.740 182, 153.840 182.450, 153.500 183 M 163.500 183 C 163.148 183.569, 164.009 184, 165.500 184 C 166.991 184, 167.852 183.569, 167.500 183 C 167.160 182.450, 166.260 182, 165.500 182 C 164.740 182, 163.840 182.450, 163.500 183 M 198.187 185.250 C 198.387 187.333, 199.039 188.500, 200 188.500 C 200.961 188.500, 201.613 187.333, 201.813 185.250 C 202.078 182.504, 201.797 182, 200 182 C 198.203 182, 197.922 182.504, 198.187 185.250 M 208 183 C 208 183.550, 208.900 184, 210 184 C 211.100 184, 212 183.550, 212 183 C 212 182.450, 211.100 182, 210 182 C 208.900 182, 208 182.450, 208 183 M 178 187.573 C 178 188.505, 178.680 189.015, 179.667 188.823 C 182.176 188.337, 182.520 186, 180.083 186 C 178.855 186, 178 186.646, 178 187.573 M 141 198.037 C 141 200.626, 144.209 210, 145.096 210 C 145.620 210, 146.502 208.762, 147.054 207.250 C 147.607 205.738, 148.322 203.825, 148.643 203 C 149.019 202.035, 149.636 202.899, 150.373 205.420 C 152.039 211.117, 153.641 210.948, 155.442 204.883 C 158.086 195.980, 156.754 193.879, 153.932 202.500 L 152.623 206.500 151.222 201.639 C 149.677 196.278, 148.790 196.450, 146.653 202.524 L 145.254 206.500 144.100 202.292 C 143.006 198.305, 141 195.551, 141 198.037 M 159.530 202.527 C 158.139 205.674, 157 208.643, 157 209.124 C 157 210.819, 158.873 209.977, 159.500 208 C 160.358 205.298, 164.584 205.353, 166.046 208.086 C 168.052 211.835, 168.278 209.215, 166.399 203.990 C 163.559 196.091, 162.478 195.861, 159.530 202.527 M 170 203.441 L 170 210 174 210 C 176.200 210, 178 209.550, 178 209 C 178 208.450, 176.650 208, 175 208 C 172.071 208, 172 207.882, 172 203.059 C 172 200.341, 171.550 197.840, 171 197.500 C 170.372 197.112, 170 199.323, 170 203.441 M 180 203.441 L 180 210 184 210 C 186.200 210, 188 209.550, 188 209 C 188 208.450, 186.650 208, 185 208 C 182.071 208, 182 207.882, 182 203.059 C 182 200.341, 181.550 197.840, 181 197.500 C 180.372 197.112, 180 199.323, 180 203.441 M 189.409 198.377 C 189.118 199.134, 189.020 201.947, 189.190 204.627 L 189.500 209.500 194.250 209.805 C 197.107 209.988, 199 209.689, 199 209.055 C 199 208.475, 197.200 208, 195 208 C 192.111 208, 191 207.583, 191 206.500 C 191 205.457, 192.049 205, 194.441 205 C 199.205 205, 199.897 203.194, 195.279 202.812 C 192.645 202.593, 191.417 201.975, 191.185 200.750 C 190.913 199.312, 191.590 199, 194.986 199 C 197.486 199, 198.874 198.605, 198.500 198 C 197.547 196.458, 190.026 196.770, 189.409 198.377 M 200.500 198 C 200.160 198.550, 200.809 199, 201.941 199 C 203.770 199, 204 199.614, 204 204.500 C 204 207.525, 204.450 210, 205 210 C 205.550 210, 206 207.525, 206 204.500 C 206 199.266, 206.124 199, 208.559 199 C 210.010 199, 210.851 198.567, 210.500 198 C 210.160 197.450, 207.910 197, 205.500 197 C 203.090 197, 200.840 197.450, 200.500 198 M 162.015 200.668 C 162.007 201.311, 161.727 202.548, 161.393 203.418 C 160.995 204.456, 161.338 205, 162.393 205 C 163.277 205, 163.993 204.438, 163.985 203.750 C 163.965 202.129, 162.036 199.110, 162.015 200.668" stroke="none" fill="#35648f" fill-rule="evenodd"/></svg>